# xmcd CD database file
#
# Track frame offsets:
#	150
#	11301
#	20168
#	29862
#	41966
#	53518
#	66973
#	79803
#	94204
#	103932
#	114786
#	125749
#	138867
#	149281
#	160985
#	171745
#	184393
#	194805
#	208519
#	218070
#	228479
#	242345
#
# Disc length: 3379 seconds
#
# Revision: 0
# Processed by: cddbd v1.5.2PL0 Copyright (c) Steve Scherf et al.
# Submitted via: CDex 1.70beta2
#
DISCID=4c0d3116
DTITLE=Ruby Murray - The Ruby Murray Collection
DYEAR=2000
DGENRE=Country
TTITLE0=Softly Softly
TTITLE1=When Irish Eyes are Smiling
TTITLE2=Heartbeat
TTITLE3=Happy Days and Lonely Nights
TTITLE4=Let me go Lover
TTITLE5=If Anyone Finds this I Love You
TTITLE6=Mr. Wonderful
TTITLE7=Galway Bay
TTITLE8=Danny Boy
TTITLE9=Nevertheless (I'm in Love with You)
TTITLE10=Evermore
TTITLE11=Smile
TTITLE12=Passing Stranger
TTITLE13=I'll Come When You Call
TTITLE14=You are my First Love
TTITLE15=Goodbye Jimmy Goodbye
TTITLE16=Little White Lies
TTITLE17=Let me go Let Him Tarry
TTITLE18=Real Love
TTITLE19=Pennies From Heaven
TTITLE20=Cockles and Muscles
TTITLE21=Dear Ol'Donegal
EXTD=YEAR: 2000
EXTT0=
EXTT1=
EXTT2=
EXTT3=
EXTT4=
EXTT5=
EXTT6=
EXTT7=
EXTT8=
EXTT9=
EXTT10=
EXTT11=
EXTT12=
EXTT13=
EXTT14=
EXTT15=
EXTT16=
EXTT17=
EXTT18=
EXTT19=
EXTT20=
EXTT21=
PLAYORDER=
